<svg width="20" height="20" viewBox="0 0 20 20" fill="none" xmlns="http://www.w3.org/2000/svg"><path d="M15.0003 14.15H10.0087C9.09199 14.15 8.38366 14.9333 7.94199 15.7333C7.59237 16.3893 7.03348 16.9097 6.35418 17.2116C5.67487 17.5135 4.91413 17.5797 4.19288 17.3996C3.47164 17.2196 2.83129 16.8036 2.37361 16.2178C1.91594 15.632 1.66722 14.91 1.66699 14.1666C1.67533 13.5833 1.83366 13 2.14199 12.5M5.00033 14.1666L7.60866 9.34991C8.05033 8.54157 7.69199 7.53324 7.19199 6.76657C6.956 6.38916 6.798 5.9683 6.72729 5.52883C6.65659 5.08936 6.67462 4.64018 6.78032 4.20779C6.88602 3.77541 7.07725 3.36857 7.34273 3.01128C7.60821 2.65399 7.94256 2.3535 8.32605 2.12752C8.70954 1.90154 9.13441 1.75466 9.57559 1.69555C10.0168 1.63643 10.4653 1.66627 10.8948 1.78331C11.3242 1.90035 11.7259 2.10222 12.0761 2.37701C12.4263 2.65179 12.7178 2.99393 12.9337 3.38324M10.0003 4.99996L12.6087 9.77496C13.0503 10.5833 14.0837 10.8333 15.0003 10.8333C15.8844 10.8333 16.7322 11.1845 17.3573 11.8096C17.9825 12.4347 18.3337 13.2826 18.3337 14.1666C18.3337 15.0507 17.9825 15.8985 17.3573 16.5236C16.7322 17.1488 15.8844 17.5 15.0003 17.5" stroke="#71767D" stroke-width="1.5" stroke-linecap="round" stroke-linejoin="round"/></svg>
