<svg width="40" height="40" viewBox="0 0 40 40" fill="none" xmlns="http://www.w3.org/2000/svg"><rect x="0.5" y="0.5" width="39" height="39" rx="7.5" fill="white"/><rect x="0.5" y="0.5" width="39" height="39" rx="7.5" stroke="#E7E8E9"/><path d="M16.2701 11.7098C17.7178 11.5908 18.9488 11.8651 20.0924 12.7911C20.5487 13.1605 21.279 13.8985 21.4397 14.4685C21.9677 14.3148 22.5513 14.0803 23.0801 13.9672C25.9755 13.3643 28.9963 14.4113 30.6917 16.8893C34.0579 21.8093 30.5267 28.1545 24.6734 28.226C24.1739 28.2321 23.6361 28.1331 23.1456 28.0496C22.4853 27.9036 21.954 27.7206 21.3569 27.3938C20.9979 27.6301 20.6219 27.7722 20.2323 27.9309C18.7055 28.5525 16.8558 28.4238 15.4652 27.5252C15.1791 27.3404 14.9003 27.1528 14.5818 26.9989C14.0055 27.1391 13.5916 27.3338 12.9647 27.3756C11.6728 27.4708 10.5316 27.2432 9.53937 26.3666C7.67626 24.7207 7.44954 21.9513 9.16011 20.1059C9.8004 19.4152 10.5926 18.8571 11.5413 18.7959C11.4661 17.1311 11.0761 15.933 12.0512 14.3792C12.8612 13.0885 13.929 12.2972 15.3767 11.8259C15.6414 11.7397 15.9973 11.7231 16.2701 11.7098Z" fill="url(#sapg)"/><path d="M25.4239 17.7522C26.1141 17.6456 27.0481 17.7686 27.5709 18.2761C28.2351 18.9209 28.1761 19.6326 28.1974 20.4906C28.0378 20.4734 27.7137 20.4794 27.5425 20.4761L26.362 20.4477C26.3357 19.8893 26.3995 18.5669 25.458 19.1281C25.238 19.2592 25.1889 20.3693 25.2026 20.6378C25.2334 21.2425 24.8862 24.5381 26.1932 23.7419C26.4492 23.5785 26.4608 22.5358 26.4686 22.0904C26.6989 22.0938 26.9292 22.0984 27.1594 22.1042C27.526 22.1223 27.9384 22.118 28.3088 22.1213C28.2931 22.8941 28.2546 23.7343 27.7696 24.378C27.4517 24.7998 26.9139 25.0225 26.403 25.0916C25.6491 25.1935 24.7444 25.103 24.1222 24.6261C23.5593 24.1946 23.4186 23.5565 23.3337 22.8904C23.1906 21.7683 23.1101 19.493 23.8178 18.583C24.2496 18.0278 24.7413 17.8387 25.4239 17.7522Z" fill="white"/><path d="M14.6564 17.7522C15.3445 17.6478 16.2663 17.7604 16.7789 18.2789C17.4248 18.9323 17.4618 19.6307 17.4701 20.4965C16.8918 20.4645 16.2179 20.4596 15.6356 20.4496C15.6205 20.0333 15.6139 18.5011 14.8761 18.9989C14.3244 19.3709 14.4128 21.422 14.4032 22.0656C14.3957 22.569 14.4913 24.4573 15.3831 23.8005C15.7102 23.5597 15.6962 22.511 15.7103 22.1164L16.2258 22.1181C16.6475 22.1155 17.0761 22.1355 17.4968 22.1252C17.4929 22.9386 17.508 23.6719 16.9927 24.3546C16.6563 24.7891 16.1357 25.0384 15.6017 25.0991C14.0515 25.2753 12.6933 24.7142 12.5352 23.0108C12.4861 22.4827 12.4671 22.013 12.4756 21.4717C12.4913 20.4729 12.4167 19.3504 13.0704 18.5143C13.4928 17.9838 14.0115 17.8262 14.6564 17.7522Z" fill="white"/><path d="M22.1499 18.0496C22.2039 19.4652 22.1496 20.9216 22.1674 22.3426C22.3953 22.3585 22.5909 22.3568 22.8198 22.3543L22.8178 23.7088C22.5938 23.7058 22.3699 23.7061 22.1459 23.7098C22.1527 24.1612 22.1526 24.6128 22.1459 25.0642C21.58 25.0555 21.0136 25.0571 20.4477 25.0682L20.4233 25.0633C20.3631 24.9823 20.4033 23.8422 20.4125 23.659C19.7634 23.7011 18.4894 23.6755 17.8247 23.6639C17.8211 23.2377 17.7831 22.5903 17.8852 22.1941C17.9122 22.0907 18.2088 21.5734 18.2797 21.4441C18.5852 20.8928 18.8866 20.3387 19.184 19.783C19.4098 19.36 19.6328 18.9355 19.853 18.5096C19.918 18.3812 19.9762 18.2368 20.0395 18.1092C20.0608 18.0666 20.1512 18.0648 20.2075 18.0555C20.7847 18.0242 21.5607 18.0468 22.1499 18.0496ZM20.4428 20.1033C20.2714 20.3662 19.2843 22.0818 19.3061 22.2879C19.3395 22.3021 19.347 22.3095 19.3823 22.3113C19.7403 22.2962 20.0993 22.2924 20.4575 22.3006C20.4549 22.0728 20.4925 20.1591 20.4428 20.1033Z" fill="white"/><defs><linearGradient id="sapg" x1="20" y1="11.6836" x2="20" y2="28.3157" gradientUnits="userSpaceOnUse"><stop stop-color="#018BD3"/><stop offset="1" stop-color="#0069AB"/></linearGradient></defs></svg>
